# xmcd
#
# Track frame offsets:
#	225
#	14908
#	30928
#	43257
#	55979
#	69401
#	90665
#	104367
#	114513
#	130432
#	144732
#	157257
#	173044
#
# Disc length: 2521 seconds
#
# Revision: 0
# Processed by: cddbd v1.5.2PL0 Copyright (c) Steve Scherf et al.
# Submitted via: EasyCDDAExtractor 16.0.1.1
#
DISCID=bc09d60d
DTITLE=High Ground - Different Shades Of Grass
DYEAR=1900
DGENRE=Bluegrass
TTITLE0=Blue and Lonesome
TTITLE1=I'd Like To Be A Train
TTITLE2=Darkest Hour
TTITLE3=Why Don't You Tell Me
TTITLE4=I Could Cry
TTITLE5=Who Will Watch The Home Place
TTITLE6=Your Love Has Lifted Me
TTITLE7=Panhandle Rag
TTITLE8=Mom's Old Picture Book
TTITLE9=Engineers Don't Wave
TTITLE10=Prayer Bells
TTITLE11=Life's Railway
TTITLE12=Freeborn Man
EXTD=
EXTT0=
EXTT1=
EXTT2=
EXTT3=
EXTT4=
EXTT5=
EXTT6=
EXTT7=
EXTT8=
EXTT9=
EXTT10=
EXTT11=
EXTT12=
PLAYORDER=
